<svg xmlns="http://w3.org" viewBox="0 0 860 160" width="860" height="160">
  <rect width="100%" height="100%" fill="#0d1117" rx="6"/>
  <style>
    rect { opacity: 0; animation: slideDiagonal 0.4s ease forwards; }
    .meta-text { font-family: ui-monospace, SFMono-Regular, SF Mono, Menlo, Consolas, monospace; font-size: 13px; font-weight: 600; fill: #58a6ff; }
    .legend-text { font-family: ui-monospace, SFMono-Regular, SF Mono, Menlo, Consolas, monospace; font-size: 11px; fill: #8b949e; }
    @keyframes slideDiagonal { from { opacity: 0; } to { opacity: 1; } }
  </style>
  <circle cx="20" cy="20" r="6" fill="#ff5f56"/>
  <circle cx="40" cy="20" r="6" fill="#ffbd2e"/>
  <circle cx="60" cy="20" r="6" fill="#27c93f"/>
  <text x="80" y="24" class="meta-text">joey@github ~ $ ./contributions.sh</text>
  <rect x="20" y="45" width="11" height="11" rx="2" fill="#161b22" />
  <rect x="20" y="60" width="11" height="11" rx="2" fill="#161b22" />
  <rect x="20" y="75" width="11" height="11" rx="2" fill="#161b22" />
  <rect x="20" y="90" width="11" height="11" rx="2" fill="#161b22" />
  <rect x="20" y="105" width="11" height="11" rx="2" fill="#161b22" />
  <rect x="20" y="120" width="11" height="11" rx="2" fill="#161b22" />
  <rect x="20" y="135" width="11" height="11" rx="2" fill="#161b22" />
  <rect x="35" y="45" width="11" height="11" rx="2" fill="#161b22" />
  <rect x="35" y="60" width="11" height="11" rx="2" fill="#161b22" />
  <rect x="35" y="75" width="11" height="11" rx="2" fill="#161b22" />
  <rect x="35" y="90" width="11" height="11" rx="2" fill="#161b22" />
  <rect x="35" y="105" width="11" height="11" rx="2" fill="#161b22" />
  <rect x="35" y="120" width="11" height="11" rx="2" fill="#161b22" />
  <rect x="35" y="135" width="11" height="11" rx="2" fill="#161b22" />
  <rect x="50" y="45" width="11" height="11" rx="2" fill="#161b22" />
  <rect x="50" y="60" width="11" height="11" rx="2" fill="#161b22" />
  <rect x="50" y="75" width="11" height="11" rx="2" fill="#161b22" />
  <rect x="50" y="90" width="11" height="11" rx="2" fill="#161b22" />
  <rect x="50" y="105" width="11" height="11" rx="2" fill="#161b22" />
  <rect x="50" y="120" width="11" height="11" rx="2" fill="#161b22" />
  <rect x="50" y="135" width="11" height="11" rx="2" fill="#161b22" />
  <rect x="65" y="45" width="11" height="11" rx="2" fill="#161b22" />
  <rect x="65" y="60" width="11" height="11" rx="2" fill="#161b22" />
  <rect x="65" y="75" width="11" height="11" rx="2" fill="#161b22" />
  <rect x="65" y="90" width="11" height="11" rx="2" fill="#161b22" />
  <rect x="65" y="105" width="11" height="11" rx="2" fill="#161b22" />
  <rect x="65" y="120" width="11" height="11" rx="2" fill="#161b22" />
  <rect x="65" y="135" width="11" height="11" rx="2" fill="#161b22" />
  <rect x="80" y="45" width="11" height="11" rx="2" fill="#161b22" />
  <rect x="80" y="60" width="11" height="11" rx="2" fill="#161b22" />
  <rect x="80" y="75" width="11" height="11" rx="2" fill="#161b22" />
  <rect x="80" y="90" width="11" height="11" rx="2" fill="#161b22" />
  <rect x="80" y="105" width="11" height="11" rx="2" fill="#161b22" />
  <rect x="80" y="120" width="11" height="11" rx="2" fill="#161b22" />
  <rect x="80" y="135" width="11" height="11" rx="2" fill="#161b22" />
  <rect x="95" y="45" width="11" height="11" rx="2" fill="#161b22" />
  <rect x="95" y="60" width="11" height="11" rx="2" fill="#161b22" />
  <rect x="95" y="75" width="11" height="11" rx="2" fill="#161b22" />
  <rect x="95" y="90" width="11" height="11" rx="2" fill="#161b22" />
  <rect x="95" y="105" width="11" height="11" rx="2" fill="#161b22" />
  <rect x="95" y="120" width="11" height="11" rx="2" fill="#161b22" />
  <rect x="95" y="135" width="11" height="11" rx="2" fill="#161b22" />
  <rect x="110" y="45" width="11" height="11" rx="2" fill="#161b22" />
  <rect x="110" y="60" width="11" height="11" rx="2" fill="#161b22" />
  <rect x="110" y="75" width="11" height="11" rx="2" fill="#161b22" />
  <rect x="110" y="90" width="11" height="11" rx="2" fill="#161b22" />
  <rect x="110" y="105" width="11" height="11" rx="2" fill="#161b22" />
  <rect x="110" y="120" width="11" height="11" rx="2" fill="#161b22" />
  <rect x="110" y="135" width="11" height="11" rx="2" fill="#161b22" />
  <rect x="125" y="45" width="11" height="11" rx="2" fill="#161b22" />
  <rect x="125" y="60" width="11" height="11" rx="2" fill="#161b22" />
  <rect x="125" y="75" width="11" height="11" rx="2" fill="#161b22" />
  <rect x="125" y="90" width="11" height="11" rx="2" fill="#161b22" />
  <rect x="125" y="105" width="11" height="11" rx="2" fill="#161b22" />
  <rect x="125" y="120" width="11" height="11" rx="2" fill="#161b22" />
  <rect x="125" y="135" width="11" height="11" rx="2" fill="#161b22" />
  <rect x="140" y="45" width="11" height="11" rx="2" fill="#161b22" />
  <rect x="140" y="60" width="11" height="11" rx="2" fill="#161b22" />
  <rect x="140" y="75" width="11" height="11" rx="2" fill="#161b22" />
  <rect x="140" y="90" width="11" height="11" rx="2" fill="#161b22" />
  <rect x="140" y="105" width="11" height="11" rx="2" fill="#161b22" />
  <rect x="140" y="120" width="11" height="11" rx="2" fill="#161b22" />
  <rect x="140" y="135" width="11" height="11" rx="2" fill="#161b22" />
  <rect x="155" y="45" width="11" height="11" rx="2" fill="#161b22" />
  <rect x="155" y="60" width="11" height="11" rx="2" fill="#161b22" />
  <rect x="155" y="75" width="11" height="11" rx="2" fill="#161b22" />
  <rect x="155" y="90" width="11" height="11" rx="2" fill="#161b22" />
  <rect x="155" y="105" width="11" height="11" rx="2" fill="#161b22" />
  <rect x="155" y="120" width="11" height="11" rx="2" fill="#161b22" />
  <rect x="155" y="135" width="11" height="11" rx="2" fill="#161b22" />
  <rect x="170" y="45" width="11" height="11" rx="2" fill="#161b22" />
  <rect x="170" y="60" width="11" height="11" rx="2" fill="#161b22" />
  <rect x="170" y="75" width="11" height="11" rx="2" fill="#161b22" />
  <rect x="170" y="90" width="11" height="11" rx="2" fill="#161b22" />
  <rect x="170" y="105" width="11" height="11" rx="2" fill="#161b22" />
  <rect x="170" y="120" width="11" height="11" rx="2" fill="#161b22" />
  <rect x="170" y="135" width="11" height="11" rx="2" fill="#161b22" />
  <rect x="185" y="45" width="11" height="11" rx="2" fill="#161b22" />
  <rect x="185" y="60" width="11" height="11" rx="2" fill="#161b22" />
  <rect x="185" y="75" width="11" height="11" rx="2" fill="#161b22" />
  <rect x="185" y="90" width="11" height="11" rx="2" fill="#161b22" />
  <rect x="185" y="105" width="11" height="11" rx="2" fill="#161b22" />
  <rect x="185" y="120" width="11" height="11" rx="2" fill="#161b22" />
  <rect x="185" y="135" width="11" height="11" rx="2" fill="#161b22" />
  <rect x="200" y="45" width="11" height="11" rx="2" fill="#161b22" />
  <rect x="200" y="60" width="11" height="11" rx="2" fill="#161b22" />
  <rect x="200" y="75" width="11" height="11" rx="2" fill="#161b22" />
  <rect x="200" y="90" width="11" height="11" rx="2" fill="#161b22" />
  <rect x="200" y="105" width="11" height="11" rx="2" fill="#161b22" />
  <rect x="200" y="120" width="11" height="11" rx="2" fill="#161b22" />
  <rect x="200" y="135" width="11" height="11" rx="2" fill="#161b22" />
  <rect x="215" y="45" width="11" height="11" rx="2" fill="#161b22" />
  <rect x="215" y="60" width="11" height="11" rx="2" fill="#161b22" />
  <rect x="215" y="75" width="11" height="11" rx="2" fill="#161b22" />
  <rect x="215" y="90" width="11" height="11" rx="2" fill="#161b22" />
  <rect x="215" y="105" width="11" height="11" rx="2" fill="#161b22" />
  <rect x="215" y="120" width="11" height="11" rx="2" fill="#161b22" />
  <rect x="215" y="135" width="11" height="11" rx="2" fill="#161b22" />
  <rect x="230" y="45" width="11" height="11" rx="2" fill="#161b22" />
  <rect x="230" y="60" width="11" height="11" rx="2" fill="#161b22" />
  <rect x="230" y="75" width="11" height="11" rx="2" fill="#161b22" />
  <rect x="230" y="90" width="11" height="11" rx="2" fill="#161b22" />
  <rect x="230" y="105" width="11" height="11" rx="2" fill="#161b22" />
  <rect x="230" y="120" width="11" height="11" rx="2" fill="#161b22" />
  <rect x="230" y="135" width="11" height="11" rx="2" fill="#161b22" />
  <rect x="245" y="45" width="11" height="11" rx="2" fill="#161b22" />
  <rect x="245" y="60" width="11" height="11" rx="2" fill="#161b22" />
  <rect x="245" y="75" width="11" height="11" rx="2" fill="#161b22" />
  <rect x="245" y="90" width="11" height="11" rx="2" fill="#161b22" />
  <rect x="245" y="105" width="11" height="11" rx="2" fill="#161b22" />
  <rect x="245" y="120" width="11" height="11" rx="2" fill="#161b22" />
  <rect x="245" y="135" width="11" height="11" rx="2" fill="#161b22" />
  <rect x="260" y="45" width="11" height="11" rx="2" fill="#161b22" />
  <rect x="260" y="60" width="11" height="11" rx="2" fill="#161b22" />
  <rect x="260" y="75" width="11" height="11" rx="2" fill="#161b22" />
  <rect x="260" y="90" width="11" height="11" rx="2" fill="#161b22" />
  <rect x="260" y="105" width="11" height="11" rx="2" fill="#161b22" />
  <rect x="260" y="120" width="11" height="11" rx="2" fill="#161b22" />
  <rect x="260" y="135" width="11" height="11" rx="2" fill="#161b22" />
  <rect x="275" y="45" width="11" height="11" rx="2" fill="#161b22" />
  <rect x="275" y="60" width="11" height="11" rx="2" fill="#161b22" />
  <rect x="275" y="75" width="11" height="11" rx="2" fill="#161b22" />
  <rect x="275" y="90" width="11" height="11" rx="2" fill="#161b22" />
  <rect x="275" y="105" width="11" height="11" rx="2" fill="#161b22" />
  <rect x="275" y="120" width="11" height="11" rx="2" fill="#161b22" />
  <rect x="275" y="135" width="11" height="11" rx="2" fill="#161b22" />
  <rect x="290" y="45" width="11" height="11" rx="2" fill="#161b22" />
  <rect x="290" y="60" width="11" height="11" rx="2" fill="#161b22" />
  <rect x="290" y="75" width="11" height="11" rx="2" fill="#161b22" />
  <rect x="290" y="90" width="11" height="11" rx="2" fill="#161b22" />
  <rect x="290" y="105" width="11" height="11" rx="2" fill="#161b22" />
  <rect x="290" y="120" width="11" height="11" rx="2" fill="#161b22" />
  <rect x="290" y="135" width="11" height="11" rx="2" fill="#161b22" />
  <rect x="305" y="45" width="11" height="11" rx="2" fill="#161b22" />
  <rect x="305" y="60" width="11" height="11" rx="2" fill="#161b22" />
  <rect x="305" y="75" width="11" height="11" rx="2" fill="#161b22" />
  <rect x="305" y="90" width="11" height="11" rx="2" fill="#161b22" />
  <rect x="305" y="105" width="11" height="11" rx="2" fill="#161b22" />
  <rect x="305" y="120" width="11" height="11" rx="2" fill="#161b22" />
  <rect x="305" y="135" width="11" height="11" rx="2" fill="#161b22" />
  <rect x="320" y="45" width="11" height="11" rx="2" fill="#161b22" />
  <rect x="320" y="60" width="11" height="11" rx="2" fill="#161b22" />
  <rect x="320" y="75" width="11" height="11" rx="2" fill="#161b22" />
  <rect x="320" y="90" width="11" height="11" rx="2" fill="#161b22" />
  <rect x="320" y="105" width="11" height="11" rx="2" fill="#161b22" />
  <rect x="320" y="120" width="11" height="11" rx="2" fill="#161b22" />
  <rect x="320" y="135" width="11" height="11" rx="2" fill="#161b22" />
  <rect x="335" y="45" width="11" height="11" rx="2" fill="#161b22" />
  <rect x="335" y="60" width="11" height="11" rx="2" fill="#161b22" />
  <rect x="335" y="75" width="11" height="11" rx="2" fill="#161b22" />
  <rect x="335" y="90" width="11" height="11" rx="2" fill="#161b22" />
  <rect x="335" y="105" width="11" height="11" rx="2" fill="#161b22" />
  <rect x="335" y="120" width="11" height="11" rx="2" fill="#161b22" />
  <rect x="335" y="135" width="11" height="11" rx="2" fill="#161b22" />
  <rect x="350" y="45" width="11" height="11" rx="2" fill="#161b22" />
  <rect x="350" y="60" width="11" height="11" rx="2" fill="#161b22" />
  <rect x="350" y="75" width="11" height="11" rx="2" fill="#161b22" />
  <rect x="350" y="90" width="11" height="11" rx="2" fill="#161b22" />
  <rect x="350" y="105" width="11" height="11" rx="2" fill="#161b22" />
  <rect x="350" y="120" width="11" height="11" rx="2" fill="#161b22" />
  <rect x="350" y="135" width="11" height="11" rx="2" fill="#161b22" />
  <rect x="365" y="45" width="11" height="11" rx="2" fill="#161b22" />
  <rect x="365" y="60" width="11" height="11" rx="2" fill="#161b22" />
  <rect x="365" y="75" width="11" height="11" rx="2" fill="#161b22" />
  <rect x="365" y="90" width="11" height="11" rx="2" fill="#161b22" />
  <rect x="365" y="105" width="11" height="11" rx="2" fill="#161b22" />
  <rect x="365" y="120" width="11" height="11" rx="2" fill="#161b22" />
  <rect x="365" y="135" width="11" height="11" rx="2" fill="#161b22" />
  <rect x="380" y="45" width="11" height="11" rx="2" fill="#161b22" />
  <rect x="380" y="60" width="11" height="11" rx="2" fill="#161b22" />
  <rect x="380" y="75" width="11" height="11" rx="2" fill="#161b22" />
  <rect x="380" y="90" width="11" height="11" rx="2" fill="#161b22" />
  <rect x="380" y="105" width="11" height="11" rx="2" fill="#161b22" />
  <rect x="380" y="120" width="11" height="11" rx="2" fill="#161b22" />
  <rect x="380" y="135" width="11" height="11" rx="2" fill="#161b22" />
  <rect x="395" y="45" width="11" height="11" rx="2" fill="#161b22" />
  <rect x="395" y="60" width="11" height="11" rx="2" fill="#161b22" />
  <rect x="395" y="75" width="11" height="11" rx="2" fill="#161b22" />
  <rect x="395" y="90" width="11" height="11" rx="2" fill="#161b22" />
  <rect x="395" y="105" width="11" height="11" rx="2" fill="#161b22" />
  <rect x="395" y="120" width="11" height="11" rx="2" fill="#161b22" />
  <rect x="395" y="135" width="11" height="11" rx="2" fill="#161b22" />
  <rect x="410" y="45" width="11" height="11" rx="2" fill="#161b22" />
  <rect x="410" y="60" width="11" height="11" rx="2" fill="#161b22" />
  <rect x="410" y="75" width="11" height="11" rx="2" fill="#161b22" />
  <rect x="410" y="90" width="11" height="11" rx="2" fill="#161b22" />
  <rect x="410" y="105" width="11" height="11" rx="2" fill="#161b22" />
  <rect x="410" y="120" width="11" height="11" rx="2" fill="#161b22" />
  <rect x="410" y="135" width="11" height="11" rx="2" fill="#161b22" />
  <rect x="425" y="45" width="11" height="11" rx="2" fill="#161b22" />
  <rect x="425" y="60" width="11" height="11" rx="2" fill="#161b22" />
  <rect x="425" y="75" width="11" height="11" rx="2" fill="#161b22" />
  <rect x="425" y="90" width="11" height="11" rx="2" fill="#161b22" />
  <rect x="425" y="105" width="11" height="11" rx="2" fill="#161b22" />
  <rect x="425" y="120" width="11" height="11" rx="2" fill="#161b22" />
  <rect x="425" y="135" width="11" height="11" rx="2" fill="#161b22" />
  <rect x="440" y="45" width="11" height="11" rx="2" fill="#161b22" />
  <rect x="440" y="60" width="11" height="11" rx="2" fill="#161b22" />
  <rect x="440" y="75" width="11" height="11" rx="2" fill="#161b22" />
  <rect x="440" y="90" width="11" height="11" rx="2" fill="#161b22" />
  <rect x="440" y="105" width="11" height="11" rx="2" fill="#161b22" />
  <rect x="440" y="120" width="11" height="11" rx="2" fill="#161b22" />
  <rect x="440" y="135" width="11" height="11" rx="2" fill="#161b22" />
  <rect x="455" y="45" width="11" height="11" rx="2" fill="#161b22" />
  <rect x="455" y="60" width="11" height="11" rx="2" fill="#161b22" />
  <rect x="455" y="75" width="11" height="11" rx="2" fill="#161b22" />
  <rect x="455" y="90" width="11" height="11" rx="2" fill="#161b22" />
  <rect x="455" y="105" width="11" height="11" rx="2" fill="#161b22" />
  <rect x="455" y="120" width="11" height="11" rx="2" fill="#161b22" />
  <rect x="455" y="135" width="11" height="11" rx="2" fill="#161b22" />
  <rect x="470" y="45" width="11" height="11" rx="2" fill="#161b22" />
  <rect x="470" y="60" width="11" height="11" rx="2" fill="#161b22" />
  <rect x="470" y="75" width="11" height="11" rx="2" fill="#161b22" />
  <rect x="470" y="90" width="11" height="11" rx="2" fill="#161b22" />
  <rect x="470" y="105" width="11" height="11" rx="2" fill="#161b22" />
  <rect x="470" y="120" width="11" height="11" rx="2" fill="#161b22" />
  <rect x="470" y="135" width="11" height="11" rx="2" fill="#161b22" />
  <rect x="485" y="45" width="11" height="11" rx="2" fill="#161b22" />
  <rect x="485" y="60" width="11" height="11" rx="2" fill="#161b22" />
  <rect x="485" y="75" width="11" height="11" rx="2" fill="#161b22" />
  <rect x="485" y="90" width="11" height="11" rx="2" fill="#161b22" />
  <rect x="485" y="105" width="11" height="11" rx="2" fill="#161b22" />
  <rect x="485" y="120" width="11" height="11" rx="2" fill="#161b22" />
  <rect x="485" y="135" width="11" height="11" rx="2" fill="#161b22" />
  <rect x="500" y="45" width="11" height="11" rx="2" fill="#161b22" />
  <rect x="500" y="60" width="11" height="11" rx="2" fill="#161b22" />
  <rect x="500" y="75" width="11" height="11" rx="2" fill="#161b22" />
  <rect x="500" y="90" width="11" height="11" rx="2" fill="#161b22" />
  <rect x="500" y="105" width="11" height="11" rx="2" fill="#161b22" />
  <rect x="500" y="120" width="11" height="11" rx="2" fill="#161b22" />
  <rect x="500" y="135" width="11" height="11" rx="2" fill="#161b22" />
  <rect x="515" y="45" width="11" height="11" rx="2" fill="#161b22" />
  <rect x="515" y="60" width="11" height="11" rx="2" fill="#161b22" />
  <rect x="515" y="75" width="11" height="11" rx="2" fill="#161b22" />
  <rect x="515" y="90" width="11" height="11" rx="2" fill="#161b22" />
  <rect x="515" y="105" width="11" height="11" rx="2" fill="#161b22" />
  <rect x="515" y="120" width="11" height="11" rx="2" fill="#161b22" />
  <rect x="515" y="135" width="11" height="11" rx="2" fill="#161b22" />
  <rect x="530" y="45" width="11" height="11" rx="2" fill="#161b22" />
  <rect x="530" y="60" width="11" height="11" rx="2" fill="#161b22" />
  <rect x="530" y="75" width="11" height="11" rx="2" fill="#161b22" />
  <rect x="530" y="90" width="11" height="11" rx="2" fill="#161b22" />
  <rect x="530" y="105" width="11" height="11" rx="2" fill="#161b22" />
  <rect x="530" y="120" width="11" height="11" rx="2" fill="#161b22" />
  <rect x="530" y="135" width="11" height="11" rx="2" fill="#161b22" />
  <rect x="545" y="45" width="11" height="11" rx="2" fill="#161b22" />
  <rect x="545" y="60" width="11" height="11" rx="2" fill="#161b22" />
  <rect x="545" y="75" width="11" height="11" rx="2" fill="#161b22" />
  <rect x="545" y="90" width="11" height="11" rx="2" fill="#161b22" />
  <rect x="545" y="105" width="11" height="11" rx="2" fill="#161b22" />
  <rect x="545" y="120" width="11" height="11" rx="2" fill="#161b22" />
  <rect x="545" y="135" width="11" height="11" rx="2" fill="#161b22" />
  <rect x="560" y="45" width="11" height="11" rx="2" fill="#161b22" />
  <rect x="560" y="60" width="11" height="11" rx="2" fill="#161b22" />
  <rect x="560" y="75" width="11" height="11" rx="2" fill="#161b22" />
  <rect x="560" y="90" width="11" height="11" rx="2" fill="#161b22" />
  <rect x="560" y="105" width="11" height="11" rx="2" fill="#161b22" />
  <rect x="560" y="120" width="11" height="11" rx="2" fill="#161b22" />
  <rect x="560" y="135" width="11" height="11" rx="2" fill="#161b22" />
  <rect x="575" y="45" width="11" height="11" rx="2" fill="#161b22" />
  <rect x="575" y="60" width="11" height="11" rx="2" fill="#161b22" />
  <rect x="575" y="75" width="11" height="11" rx="2" fill="#161b22" />
  <rect x="575" y="90" width="11" height="11" rx="2" fill="#161b22" />
  <rect x="575" y="105" width="11" height="11" rx="2" fill="#161b22" />
  <rect x="575" y="120" width="11" height="11" rx="2" fill="#161b22" />
  <rect x="575" y="135" width="11" height="11" rx="2" fill="#161b22" />
  <rect x="590" y="45" width="11" height="11" rx="2" fill="#161b22" />
  <rect x="590" y="60" width="11" height="11" rx="2" fill="#161b22" />
  <rect x="590" y="75" width="11" height="11" rx="2" fill="#161b22" />
  <rect x="590" y="90" width="11" height="11" rx="2" fill="#161b22" />
  <rect x="590" y="105" width="11" height="11" rx="2" fill="#161b22" />
  <rect x="590" y="120" width="11" height="11" rx="2" fill="#161b22" />
  <rect x="590" y="135" width="11" height="11" rx="2" fill="#161b22" />
  <rect x="605" y="45" width="11" height="11" rx="2" fill="#161b22" />
  <rect x="605" y="60" width="11" height="11" rx="2" fill="#161b22" />
  <rect x="605" y="75" width="11" height="11" rx="2" fill="#161b22" />
  <rect x="605" y="90" width="11" height="11" rx="2" fill="#161b22" />
  <rect x="605" y="105" width="11" height="11" rx="2" fill="#161b22" />
  <rect x="605" y="120" width="11" height="11" rx="2" fill="#161b22" />
  <rect x="605" y="135" width="11" height="11" rx="2" fill="#161b22" />
  <rect x="620" y="45" width="11" height="11" rx="2" fill="#161b22" />
  <rect x="620" y="60" width="11" height="11" rx="2" fill="#161b22" />
  <rect x="620" y="75" width="11" height="11" rx="2" fill="#161b22" />
  <rect x="620" y="90" width="11" height="11" rx="2" fill="#161b22" />
  <rect x="620" y="105" width="11" height="11" rx="2" fill="#161b22" />
  <rect x="620" y="120" width="11" height="11" rx="2" fill="#161b22" />
  <rect x="620" y="135" width="11" height="11" rx="2" fill="#161b22" />
  <rect x="635" y="45" width="11" height="11" rx="2" fill="#161b22" />
  <rect x="635" y="60" width="11" height="11" rx="2" fill="#161b22" />
  <rect x="635" y="75" width="11" height="11" rx="2" fill="#161b22" />
  <rect x="635" y="90" width="11" height="11" rx="2" fill="#161b22" />
  <rect x="635" y="105" width="11" height="11" rx="2" fill="#161b22" />
  <rect x="635" y="120" width="11" height="11" rx="2" fill="#161b22" />
  <rect x="635" y="135" width="11" height="11" rx="2" fill="#161b22" />
  <rect x="650" y="45" width="11" height="11" rx="2" fill="#161b22" />
  <rect x="650" y="60" width="11" height="11" rx="2" fill="#161b22" />
  <rect x="650" y="75" width="11" height="11" rx="2" fill="#161b22" />
  <rect x="650" y="90" width="11" height="11" rx="2" fill="#161b22" />
  <rect x="650" y="105" width="11" height="11" rx="2" fill="#161b22" />
  <rect x="650" y="120" width="11" height="11" rx="2" fill="#161b22" />
  <rect x="650" y="135" width="11" height="11" rx="2" fill="#161b22" />
  <rect x="665" y="45" width="11" height="11" rx="2" fill="#161b22" />
  <rect x="665" y="60" width="11" height="11" rx="2" fill="#161b22" />
  <rect x="665" y="75" width="11" height="11" rx="2" fill="#161b22" />
  <rect x="665" y="90" width="11" height="11" rx="2" fill="#161b22" />
  <rect x="665" y="105" width="11" height="11" rx="2" fill="#161b22" />
  <rect x="665" y="120" width="11" height="11" rx="2" fill="#161b22" />
  <rect x="665" y="135" width="11" height="11" rx="2" fill="#161b22" />
  <rect x="680" y="45" width="11" height="11" rx="2" fill="#161b22" />
  <rect x="680" y="60" width="11" height="11" rx="2" fill="#161b22" />
  <rect x="680" y="75" width="11" height="11" rx="2" fill="#161b22" />
  <rect x="680" y="90" width="11" height="11" rx="2" fill="#161b22" />
  <rect x="680" y="105" width="11" height="11" rx="2" fill="#161b22" />
  <rect x="680" y="120" width="11" height="11" rx="2" fill="#161b22" />
  <rect x="680" y="135" width="11" height="11" rx="2" fill="#161b22" />
  <rect x="695" y="45" width="11" height="11" rx="2" fill="#161b22" />
  <rect x="695" y="60" width="11" height="11" rx="2" fill="#161b22" />
  <rect x="695" y="75" width="11" height="11" rx="2" fill="#161b22" />
  <rect x="695" y="90" width="11" height="11" rx="2" fill="#161b22" />
  <rect x="695" y="105" width="11" height="11" rx="2" fill="#161b22" />
  <rect x="695" y="120" width="11" height="11" rx="2" fill="#161b22" />
  <rect x="695" y="135" width="11" height="11" rx="2" fill="#161b22" />
  <rect x="710" y="45" width="11" height="11" rx="2" fill="#161b22" />
  <rect x="710" y="60" width="11" height="11" rx="2" fill="#161b22" />
  <rect x="710" y="75" width="11" height="11" rx="2" fill="#161b22" />
  <rect x="710" y="90" width="11" height="11" rx="2" fill="#161b22" />
  <rect x="710" y="105" width="11" height="11" rx="2" fill="#161b22" />
  <rect x="710" y="120" width="11" height="11" rx="2" fill="#161b22" />
  <rect x="710" y="135" width="11" height="11" rx="2" fill="#161b22" />
  <rect x="725" y="45" width="11" height="11" rx="2" fill="#161b22" />
  <rect x="725" y="60" width="11" height="11" rx="2" fill="#161b22" />
  <rect x="725" y="75" width="11" height="11" rx="2" fill="#161b22" />
  <rect x="725" y="90" width="11" height="11" rx="2" fill="#161b22" />
  <rect x="725" y="105" width="11" height="11" rx="2" fill="#161b22" />
  <rect x="725" y="120" width="11" height="11" rx="2" fill="#161b22" />
  <rect x="725" y="135" width="11" height="11" rx="2" fill="#161b22" />
  <rect x="740" y="45" width="11" height="11" rx="2" fill="#161b22" />
  <rect x="740" y="60" width="11" height="11" rx="2" fill="#161b22" />
  <rect x="740" y="75" width="11" height="11" rx="2" fill="#161b22" />
  <rect x="740" y="90" width="11" height="11" rx="2" fill="#161b22" />
  <rect x="740" y="105" width="11" height="11" rx="2" fill="#161b22" />
  <rect x="740" y="120" width="11" height="11" rx="2" fill="#161b22" />
  <rect x="740" y="135" width="11" height="11" rx="2" fill="#161b22" />
  <rect x="755" y="45" width="11" height="11" rx="2" fill="#161b22" />
  <rect x="755" y="60" width="11" height="11" rx="2" fill="#161b22" />
  <rect x="755" y="75" width="11" height="11" rx="2" fill="#161b22" />
  <rect x="755" y="90" width="11" height="11" rx="2" fill="#161b22" />
  <rect x="755" y="105" width="11" height="11" rx="2" fill="#161b22" />
  <rect x="755" y="120" width="11" height="11" rx="2" fill="#161b22" />
  <rect x="755" y="135" width="11" height="11" rx="2" fill="#161b22" />
  <rect x="770" y="45" width="11" height="11" rx="2" fill="#161b22" />
  <rect x="770" y="60" width="11" height="11" rx="2" fill="#161b22" />
  <rect x="770" y="75" width="11" height="11" rx="2" fill="#161b22" />
  <rect x="770" y="90" width="11" height="11" rx="2" fill="#161b22" />
  <rect x="770" y="105" width="11" height="11" rx="2" fill="#161b22" />
  <rect x="770" y="120" width="11" height="11" rx="2" fill="#161b22" />
  <rect x="770" y="135" width="11" height="11" rx="2" fill="#161b22" />
  <rect x="785" y="45" width="11" height="11" rx="2" fill="#161b22" />
  <rect x="785" y="60" width="11" height="11" rx="2" fill="#161b22" />
  <rect x="785" y="75" width="11" height="11" rx="2" fill="#161b22" />
  <rect x="785" y="90" width="11" height="11" rx="2" fill="#161b22" />
  <rect x="785" y="105" width="11" height="11" rx="2" fill="#161b22" />
  <rect x="785" y="120" width="11" height="11" rx="2" fill="#161b22" />
  <rect x="785" y="135" width="11" height="11" rx="2" fill="#161b22" />
  <rect x="800" y="45" width="11" height="11" rx="2" fill="#161b22" />
  <rect x="800" y="60" width="11" height="11" rx="2" fill="#161b22" />
  <rect x="800" y="75" width="11" height="11" rx="2" fill="#161b22" />
  <rect x="800" y="90" width="11" height="11" rx="2" fill="#161b22" />
  <rect x="800" y="105" width="11" height="11" rx="2" fill="#161b22" />
  <rect x="800" y="120" width="11" height="11" rx="2" fill="#161b22" />
  <rect x="800" y="135" width="11" height="11" rx="2" fill="#161b22" />
  <rect x="815" y="45" width="11" height="11" rx="2" fill="#0e4429" />

  <text x="730" y="152" class="legend-text">Less</text>
  <rect x="765" y="143" width="11" height="11" rx="2" fill="#161b22"/>
  <rect x="780" y="143" width="11" height="11" rx="2" fill="#0e4429"/>
  <rect x="795" y="143" width="11" height="11" rx="2" fill="#006d32"/>
  <rect x="810" y="143" width="11" height="11" rx="2" fill="#26a641"/>
  <rect x="825" y="143" width="11" height="11" rx="2" fill="#39d353"/>
  <text x="842" y="152" class="legend-text">More</text>
</svg>